<?xml version="1.0" encoding="UTF-8" standalone="no"?>
<!-- Created with Inkscape (http://www.inkscape.org/) -->

<svg
   width="55.552269mm"
   height="38.033142mm"
   viewBox="0 0 55.552269 38.033142"
   version="1.1"
   id="svg5"
   xml:space="preserve"
   inkscape:version="1.2.2 (732a01da63, 2022-12-09, custom)"
   sodipodi:docname="plan.svg"
   xmlns:inkscape="http://www.inkscape.org/namespaces/inkscape"
   xmlns:sodipodi="http://sodipodi.sourceforge.net/DTD/sodipodi-0.dtd"
   xmlns="http://www.w3.org/2000/svg"
   xmlns:svg="http://www.w3.org/2000/svg"><sodipodi:namedview
     id="namedview7"
     pagecolor="#ffffff"
     bordercolor="#000000"
     borderopacity="0.25"
     inkscape:showpageshadow="2"
     inkscape:pageopacity="0.0"
     inkscape:pagecheckerboard="0"
     inkscape:deskcolor="#d1d1d1"
     inkscape:document-units="mm"
     showgrid="false"
     inkscape:zoom="4.6226935"
     inkscape:cx="478.72523"
     inkscape:cy="550.65299"
     inkscape:window-width="1846"
     inkscape:window-height="1016"
     inkscape:window-x="0"
     inkscape:window-y="0"
     inkscape:window-maximized="1"
     inkscape:current-layer="layer1" /><defs
     id="defs2"><pattern
       inkscape:collect="always"
       patternUnits="userSpaceOnUse"
       width="2"
       height="1"
       patternTransform="translate(0,0) scale(10,10)"
       id="Strips1_1"
       inkscape:stockid="Stripes 1:1"
       inkscape:isstock="true"><rect
         style="fill:black;stroke:none"
         x="0"
         y="-0.5"
         width="1"
         height="2"
         id="rect8371" /></pattern><pattern
       inkscape:collect="always"
       patternUnits="userSpaceOnUse"
       width="2.5"
       height="1"
       patternTransform="translate(0,0) scale(10,10)"
       id="Strips1_1.5"
       inkscape:stockid="Stripes 1:1.5"><rect
         style="fill:black;stroke:none"
         x="0"
         y="-0.5"
         width="1"
         height="2"
         id="rect8377" /></pattern><filter
       inkscape:collect="always"
       style="color-interpolation-filters:sRGB"
       id="filter9552"
       x="-7.431781e-05"
       y="-0.00031143514"
       width="1.0001487"
       height="1.0006229"><feGaussianBlur
         inkscape:collect="always"
         stdDeviation="0.005492792"
         id="feGaussianBlur9554" /></filter></defs><g
     inkscape:label="Layer 1"
     inkscape:groupmode="layer"
     id="layer1"
     transform="translate(-69.391321,-105.99638)"><g
       style="fill:none;stroke:none;stroke-linecap:square;stroke-miterlimit:10"
       id="g211"
       transform="matrix(0.26458333,0,0,0.26458333,-14.320602,74.900394)"
       inkscape:transform-center-x="7.7406881"
       inkscape:transform-center-y="-0.34565027"><path
         fill="#000000"
         fill-opacity="0"
         d="M -43.670139,-221.86233 H 916.32986 v 720 H -43.670139 Z"
         fill-rule="evenodd"
         id="path151"
         inkscape:transform-center-x="-9.4121509"
         inkscape:transform-center-y="-3.6429661" /><path
         fill="#000000"
         fill-opacity="0"
         d="M 316.89154,-48.216654 V 85.893586"
         fill-rule="evenodd"
         id="path153"
         inkscape:transform-center-x="22.189238"
         inkscape:transform-center-y="-35.207546" /><path
         stroke="#000000"
         stroke-width="1"
         stroke-linejoin="round"
         stroke-linecap="butt"
         d="M 316.89154,-48.216654 V 85.893586"
         fill-rule="evenodd"
         id="path155"
         inkscape:transform-center-x="22.189238"
         inkscape:transform-center-y="-35.207546" /><path
         fill="#000000"
         fill-opacity="0"
         d="m 316.89154,85.426396 208.88187,0.47244"
         fill-rule="evenodd"
         id="path157"
         inkscape:transform-center-x="-5.4440928"
         inkscape:transform-center-y="-17.52699" /><path
         stroke="#000000"
         stroke-width="1"
         stroke-linejoin="round"
         stroke-linecap="butt"
         d="m 316.89154,85.426396 208.88187,0.47244"
         fill-rule="evenodd"
         id="path159"
         inkscape:transform-center-x="-5.4440928"
         inkscape:transform-center-y="-17.52699" /><path
         fill="#000000"
         fill-opacity="0"
         d="m 316.89154,-48.217634 c 0.70081,-0.85652 1.01181,-15.03018 4.20474,-5.13911 3.1929,9.89108 5.45099,45.8722699 14.95273,64.48556 9.50177,18.6133 10.90509,35.97943 42.05777,47.19424 31.15265,11.21479 120.71521,16.7454 144.85828,20.09449"
         fill-rule="evenodd"
         id="path161"
         inkscape:transform-center-x="-5.0725715"
         inkscape:transform-center-y="-37.338544" /><path
         stroke="#1155cc"
         stroke-width="1"
         stroke-linejoin="round"
         stroke-linecap="butt"
         d="m 316.89154,-48.217634 c 0.70081,-0.85652 1.01181,-15.03018 4.20474,-5.13911 3.1929,9.89108 5.45099,45.8722699 14.95273,64.48556 9.50177,18.6133 10.90509,35.97943 42.05777,47.19424 31.15265,11.21479 120.71521,16.7454 144.85828,20.09449"
         fill-rule="evenodd"
         id="path163"
         inkscape:transform-center-x="-5.0725715"
         inkscape:transform-center-y="-37.338544" /><path
         fill="#000000"
         fill-opacity="0"
         d="m 317.35873,34.492006 h 208.8819"
         fill-rule="evenodd"
         id="path165"
         inkscape:transform-center-x="-5.5677075"
         inkscape:transform-center-y="-31.06588" /><path
         stroke="#ff9900"
         stroke-width="1"
         stroke-linejoin="round"
         stroke-linecap="butt"
         d="m 317.35873,34.492006 h 208.8819"
         fill-rule="evenodd"
         id="path167"
         inkscape:transform-center-x="-5.5677075"
         inkscape:transform-center-y="-31.06588" /><path
         fill="#000000"
         fill-opacity="0"
         d="M 316.89154,126.65997 V 260.7702"
         fill-rule="evenodd"
         id="path169"
         inkscape:transform-center-x="22.189238"
         inkscape:transform-center-y="11.061891"
         inkscape:export-filename="../4f1b642a/high.svg"
         inkscape:export-xdpi="96"
         inkscape:export-ydpi="96" /><path
         stroke="#000000"
         stroke-width="1"
         stroke-linejoin="round"
         stroke-linecap="butt"
         d="M 316.89154,126.65997 V 260.7702"
         fill-rule="evenodd"
         id="path171"
         inkscape:transform-center-x="22.189238"
         inkscape:transform-center-y="11.061891" /><path
         fill="#000000"
         fill-opacity="0"
         d="m 316.89154,260.30301 208.88187,0.47244"
         fill-rule="evenodd"
         id="path173"
         inkscape:transform-center-x="-5.4440928"
         inkscape:transform-center-y="28.742446" /><path
         stroke="#000000"
         stroke-width="1"
         stroke-linejoin="round"
         stroke-linecap="butt"
         d="m 316.89154,260.30301 208.88187,0.47244"
         fill-rule="evenodd"
         id="path175"
         inkscape:transform-center-x="-5.4440928"
         inkscape:transform-center-y="28.742446" /><path
         fill="#000000"
         fill-opacity="0"
         d="m 316.89154,126.659 c 0.70081,-0.85651 1.01181,-15.03018 4.20474,-5.1391 3.1929,9.89108 5.45099,45.87225 14.95273,64.48557 9.50177,18.61328 10.90509,35.97943 42.05777,47.19421 31.15265,11.21478 120.71521,16.74542 144.85828,20.09451"
         fill-rule="evenodd"
         id="path177"
         inkscape:transform-center-x="-5.0725715"
         inkscape:transform-center-y="8.9308987" /><path
         stroke="#1155cc"
         stroke-width="1"
         stroke-linejoin="round"
         stroke-linecap="butt"
         d="m 316.89154,126.659 c 0.70081,-0.85651 1.01181,-15.03018 4.20474,-5.1391 3.1929,9.89108 5.45099,45.87225 14.95273,64.48557 9.50177,18.61328 10.90509,35.97943 42.05777,47.19421 31.15265,11.21478 120.71521,16.74542 144.85828,20.09451"
         fill-rule="evenodd"
         id="path179"
         inkscape:transform-center-x="-5.0725715"
         inkscape:transform-center-y="8.9308987" /><path
         fill="#000000"
         fill-opacity="0"
         d="m 317.35873,209.36863 h 208.8819"
         fill-rule="evenodd"
         id="path181"
         inkscape:transform-center-x="-5.5677075"
         inkscape:transform-center-y="15.203559" /><path
         stroke="#ff9900"
         stroke-width="1"
         stroke-linejoin="round"
         stroke-linecap="butt"
         d="m 317.35873,209.36863 h 208.8819"
         fill-rule="evenodd"
         id="path183"
         inkscape:transform-center-x="-5.5677075"
         inkscape:transform-center-y="15.203559" /></g><path
       style="fill:#00ff0b;stroke-width:0.264583"
       d="m 124.87401,130.31925 c 0,0 -0.86666,11.62198 -0.86666,11.62198"
       id="path534"
       inkscape:export-filename="../96ad57cb/high.png"
       inkscape:export-xdpi="96"
       inkscape:export-ydpi="96" /><path
       style="fill:#00ff0b;stroke-width:0.264583"
       d="m 124.87401,130.31925 c 0,0 -0.86666,11.62198 -0.86666,11.62198"
       id="path538" /><path
       style="fill:#00ff0b;stroke-width:0.264583"
       d="m 124.87401,130.31925 c 0,0 -0.86666,11.62198 -0.86666,11.62198"
       id="path542" /><g
       id="path595"><path
         style="color:#000000;fill:#00ff0b;stroke-width:0.264583;-inkscape-stroke:none"
         d="m 124.81196,130.44069 a 0.00673361,0.00673361 0 0 1 -0.007,0.007 0.00673361,0.00673361 0 0 1 -0.007,-0.007 0.00673361,0.00673361 0 0 1 0.007,-0.007 0.00673361,0.00673361 0 0 1 0.007,0.007 z"
         id="path10518" /><path
         style="color:#000000;fill:#000000;-inkscape-stroke:none"
         d="m 124.80469,130.30273 c -0.0101,0.002 -0.05,0.008 -0.0508,0.008 -8.6e-4,3.4e-4 -0.0462,0.0306 -0.0469,0.0312 -6.4e-4,6.4e-4 -0.0309,0.046 -0.0312,0.0469 -3.2e-4,8e-4 -0.009,0.0455 -0.01,0.0527 0.002,0.01 0.009,0.05 0.01,0.0508 3.4e-4,8.5e-4 0.0306,0.0462 0.0312,0.0469 6.4e-4,6.4e-4 0.046,0.0309 0.0469,0.0312 7.6e-4,3.1e-4 0.0406,0.006 0.0508,0.008 0.01,-0.002 0.052,-0.008 0.0527,-0.008 8.5e-4,-3.4e-4 0.0462,-0.0306 0.0469,-0.0312 6.4e-4,-6.4e-4 0.0289,-0.046 0.0293,-0.0469 3.1e-4,-7.7e-4 0.008,-0.041 0.01,-0.0508 -0.001,-0.007 -0.009,-0.0519 -0.01,-0.0527 -3.4e-4,-8.5e-4 -0.0286,-0.0462 -0.0293,-0.0469 -6.4e-4,-6.4e-4 -0.046,-0.0309 -0.0469,-0.0312 -7.6e-4,-3.1e-4 -0.0428,-0.006 -0.0527,-0.008 z m 0,0.0137 c 0.009,0.002 0.0476,0.008 0.0469,0.008 -8.5e-4,-3.4e-4 0.0417,0.028 0.041,0.0273 -6.4e-4,-6.4e-4 0.0296,0.0438 0.0293,0.043 -3.2e-4,-7.9e-4 0.007,0.0408 0.008,0.0469 -0.002,0.009 -0.008,0.0457 -0.008,0.0449 3.4e-4,-8.5e-4 -0.0299,0.0436 -0.0293,0.043 6.4e-4,-6.4e-4 -0.0419,0.0277 -0.041,0.0273 7.6e-4,-3e-4 -0.038,0.006 -0.0469,0.008 -0.009,-0.002 -0.0476,-0.008 -0.0469,-0.008 8.6e-4,3.4e-4 -0.0417,-0.028 -0.041,-0.0273 6.4e-4,6.4e-4 -0.0277,-0.0438 -0.0274,-0.043 3.1e-4,7.6e-4 -0.008,-0.0362 -0.01,-0.0449 0.001,-0.006 0.0101,-0.0477 0.01,-0.0469 -3.4e-4,8.5e-4 0.028,-0.0436 0.0274,-0.043 -6.4e-4,6.4e-4 0.0419,-0.0277 0.041,-0.0273 -7.6e-4,3e-4 0.0383,-0.006 0.0469,-0.008 z"
         id="path10520" /></g><g
       id="path597"><path
         style="color:#000000;fill:#00ff0b;stroke-width:0.264583;-inkscape-stroke:none"
         d="m 124.06254,141.81728 a 0.00673361,0.00673361 0 0 1 -0.007,0.007 0.00673361,0.00673361 0 0 1 -0.007,-0.007 0.00673361,0.00673361 0 0 1 0.007,-0.007 0.00673361,0.00673361 0 0 1 0.007,0.007 z"
         id="path10524" /><path
         style="color:#000000;fill:#000000;-inkscape-stroke:none"
         d="m 124.05469,141.67773 c -0.01,0.002 -0.05,0.009 -0.0508,0.01 -8.6e-4,3.4e-4 -0.0462,0.0306 -0.0469,0.0312 -6.4e-4,6.4e-4 -0.0309,0.046 -0.0312,0.0469 -3.1e-4,7.7e-4 -0.008,0.041 -0.01,0.0508 0.001,0.007 0.009,0.0519 0.01,0.0527 3.4e-4,8.5e-4 0.0306,0.0462 0.0312,0.0469 6.4e-4,6.3e-4 0.046,0.0309 0.0469,0.0312 7.6e-4,3e-4 0.041,0.008 0.0508,0.01 0.007,-10e-4 0.0519,-0.009 0.0527,-0.01 8.5e-4,-3.5e-4 0.0462,-0.0306 0.0469,-0.0312 6.4e-4,-6.4e-4 0.0309,-0.046 0.0312,-0.0469 3.2e-4,-8e-4 0.009,-0.0455 0.01,-0.0527 -0.002,-0.01 -0.009,-0.05 -0.01,-0.0508 -3.4e-4,-8.5e-4 -0.0306,-0.0462 -0.0312,-0.0469 -6.4e-4,-6.4e-4 -0.046,-0.0309 -0.0469,-0.0312 -7.9e-4,-3.2e-4 -0.0455,-0.009 -0.0527,-0.01 z m 0,0.0137 c 0.006,0.001 0.0477,0.0101 0.0469,0.01 -8.5e-4,-3.4e-4 0.0436,0.028 0.043,0.0274 -6.4e-4,-6.4e-4 0.0277,0.0438 0.0273,0.043 -3.1e-4,-7.5e-4 0.008,0.0362 0.01,0.0449 -10e-4,0.006 -0.0101,0.0477 -0.01,0.0469 3.4e-4,-8.5e-4 -0.028,0.0436 -0.0273,0.043 6.4e-4,-6.4e-4 -0.0438,0.0277 -0.043,0.0273 7.9e-4,-3.1e-4 -0.0408,0.009 -0.0469,0.01 -0.009,-0.002 -0.0457,-0.0101 -0.0449,-0.01 8.5e-4,3.5e-4 -0.0436,-0.028 -0.043,-0.0273 6.4e-4,6.4e-4 -0.0277,-0.0438 -0.0274,-0.043 3.2e-4,7.9e-4 -0.009,-0.0408 -0.01,-0.0469 0.002,-0.009 0.0101,-0.0457 0.01,-0.0449 -3.4e-4,8.6e-4 0.028,-0.0436 0.0274,-0.043 -6.4e-4,6.3e-4 0.0438,-0.0277 0.043,-0.0274 -7.6e-4,3.1e-4 0.0362,-0.008 0.0449,-0.01 z"
         id="path10526" /></g><path
       style="fill:#00ff0b;stroke-width:0.266004"
       d="m 124.87401,130.31926 c 0,0 -0.82493,11.62197 -0.82493,11.62197 0,0 0.82493,-11.62197 0.82493,-11.62197 z"
       id="path601" /><path
       style="opacity:0.16;mix-blend-mode:normal;fill:url(#Strips1_1.5);fill-opacity:1;stroke-width:0.484433;filter:url(#filter9552)"
       d="m 467.23558,535.47914 c -0.26643,-0.0802 -9.64021,-1.03401 -20.83061,-2.11946 -47.09474,-4.56811 -67.48992,-6.85776 -84.53355,-9.49008 -28.54034,-4.40795 -42.25285,-8.49896 -53.56969,-15.98207 -3.8435,-2.54145 -9.75449,-8.23646 -12.26803,-11.81975 l -2.04478,-2.91503 h 88.6914 88.6914 l -0.24103,1.08997 c -0.13257,0.59949 -0.47534,4.89542 -0.76171,9.54652 -0.28637,4.6511 -0.85857,11.08195 -1.27156,14.29078 -0.41298,3.20882 -0.89185,8.46915 -1.06414,11.68962 -0.18928,3.53787 -0.505,5.79765 -0.7977,5.7095 z"
       id="path7373"
       transform="scale(0.26458333)" /><path
       style="opacity:0.16;fill:url(#Strips1_1);fill-opacity:1;stroke-width:0.216324"
       d="m 263.26643,451.06729 c 0,-40.11649 0.008,-40.906 0.444,-43.75155 0.49932,-3.25888 0.78585,-4.65335 1.05498,-5.13426 0.14371,-0.25679 0.2776,-0.14343 0.6159,0.5215 1.16984,2.29933 2.03143,6.44024 4.16017,19.9943 3.07361,19.57018 5.2735,29.83274 8.23094,38.39753 1.18582,3.43414 1.85496,4.99912 4.80969,11.24885 1.01251,2.14161 2.68608,5.84076 3.71905,8.22032 1.03298,2.37957 2.62456,5.83534 3.53685,7.67951 0.91229,1.84416 1.69116,3.42603 1.73082,3.51526 0.0397,0.0892 -6.31216,0.16225 -14.11515,0.16225 h -14.18725 z"
       id="path9556"
       transform="scale(0.26458333)" /></g></svg>
